<svg width="738" height="202" viewBox="0 0 738 202" fill="none" xmlns="http://www.w3.org/2000/svg">
<path d="M443.041 0.801826C437.969 2.01553 434.972 3.78092 431.514 7.75305C428.286 11.3942 428.055 14.5939 430.476 25.8483C431.168 29.1584 431.052 29.2687 426.211 30.0411C420.332 30.9238 419.41 30.0411 419.41 22.9795C419.41 12.8285 411.572 6.76002 400.16 7.86339C388.633 8.96676 381.371 15.6973 381.371 25.0759C381.371 30.2618 384.368 36.4406 388.172 39.1991C390.477 40.8541 396.933 41.0748 399.93 39.5301C401.198 38.8681 403.272 36.1096 404.54 33.3512C407.076 28.1654 410.419 25.738 413.186 26.731C416.067 27.8344 414.915 32.3582 410.88 36.1096C405.808 40.8541 403.964 45.0469 404.886 50.0121C408.344 67.2246 442.003 68.328 451.225 51.4465C455.259 43.9436 452.262 36.7717 442.695 31.4755C437.508 28.6067 436.124 27.1723 436.124 25.0759C436.124 20.5521 440.505 21.1038 446.499 26.4C452.954 32.0272 457.91 32.6892 462.521 28.6067C471.973 20.1108 467.363 4.11193 454.683 1.0225C449.035 -0.301543 448.112 -0.301543 443.041 0.801826Z" fill="#1E1E1E"/>
<path d="M10.796 18.878C10.4514 20.4138 10.5663 22.2787 11.0257 23.0466C11.4851 23.8145 10.796 23.5951 9.41778 22.3884C6.77621 20.1944 3.79008 20.6332 2.64157 23.4854C2.29702 24.4727 2.98612 28.3121 4.24948 32.0419C5.97225 36.9784 6.20195 39.6112 5.39799 41.5858C3.67523 45.9738 0 63.6355 0 67.9138C0 73.2891 3.67523 77.6771 8.15442 77.6771C13.5524 77.6771 19.7544 71.3145 26.5306 58.699C33.3068 45.9738 36.0632 42.5731 39.7384 42.5731C45.0216 42.5731 45.3661 44.9865 45.3661 82.6136C45.2513 121.996 44.677 126.603 37.3266 140.425C32.6177 149.201 32.2731 153.151 35.9483 156.442C40.1978 160.281 41.4612 159.952 53.8651 152.054C58.8037 148.872 65.9244 149.531 74.1937 153.919C82.2333 158.307 84.9897 158.636 87.6313 155.783C90.6174 152.712 89.9283 148.434 85.6788 140.974C79.362 130.004 77.9838 124.08 77.2947 104.005C76.6056 81.4069 78.3283 46.5223 80.3956 44.2186C82.463 41.9149 85.6788 42.1343 88.3204 44.9865C89.5837 46.1932 93.1441 52.0073 96.1302 57.8214C102.906 70.6563 109.453 77.6771 114.621 77.6771C122.89 77.6771 124.728 70.766 121.053 53.7625C118.756 42.7925 115.77 36.9784 111.176 34.3456C107.615 32.2613 104.859 32.1516 66.269 31.8225L31.9468 31.5471C27.8475 31.5142 24.1137 29.2899 22.2811 25.7891C20.5583 22.6078 18.491 19.2071 17.4573 18.1101C14.9306 15.3676 11.7148 15.8064 10.796 18.878Z" fill="#1E1E1E"/>
<path d="M158.171 23.8076C157.142 24.9024 155.54 27.311 154.511 29.1722C153.253 31.6902 151.308 33.1135 147.648 34.3178C142.616 35.96 142.501 35.96 138.155 32.785C132.894 29.0627 130.606 28.8437 127.404 31.9092C125.345 33.8799 125.116 35.0842 125.688 39.3539C126.146 42.091 126.832 48.003 127.404 52.4917C128.204 59.2795 128.891 61.0312 131.75 63.7683C142.616 74.0595 168.007 66.1768 173.269 50.8495C174.412 47.6745 174.298 46.1418 172.926 42.4194C171.896 39.9013 170.524 34.9747 169.952 31.3618C169.266 27.8584 168.122 24.2455 167.436 23.4791C165.605 21.2895 160.23 21.618 158.171 23.8076Z" fill="#1E1E1E"/>
<path d="M493.705 55.0418C490.815 57.1223 483.07 62.1594 476.481 66.211C463.304 74.2046 461.57 75.7377 461.57 79.3512C461.57 82.8553 464.229 84.9358 469.893 85.8119C476.712 86.9069 480.065 90.0824 480.065 95.229C480.065 97.4523 478.046 99.1852 475.731 98.9502L473.592 98.7331L471.126 98.4783C469.112 98.2702 467.401 99.8725 467.581 101.799C467.812 104.756 468.968 106.07 472.898 108.588C473.897 109.22 474.792 109.837 475.511 110.383C476.964 111.487 476.364 112.425 474.559 112.011C473.475 111.762 472.166 111.408 470.817 110.997C464.46 109.026 461.57 109.902 461.57 113.625C461.57 115.925 466.54 120.524 471.395 122.824C473.53 123.802 474.756 125.986 474.428 128.224L473.823 132.35C471.973 145.272 475.441 153.594 485.035 158.74C489.081 160.93 491.393 161.368 499.137 161.259C506.766 161.259 509.425 160.711 514.28 158.302C524.336 153.375 531.734 143.081 529.307 137.168C528.729 135.635 527.573 135.526 522.949 136.073C517.979 136.73 516.823 136.402 513.702 133.993C508.847 130.051 507.807 125.452 507.807 107.384C507.807 92.2725 507.922 91.6155 510.697 89.0969C512.777 87.0164 514.742 86.3594 518.21 86.3594C526.533 86.3594 533.237 81.4318 533.237 75.1901C533.237 70.5911 529.538 68.839 519.828 68.839C512.315 68.839 511.159 68.5105 505.148 64.6779C498.906 60.8454 496.363 57.9983 500.409 59.4218C501.449 59.7504 503.53 60.4074 505.148 60.7359C507.922 61.3929 508.038 61.2834 507.229 57.7793C505.495 50.1142 501.565 49.3476 493.705 55.0418Z" fill="#1E1E1E"/>
<path d="M205.172 59.2435C204.366 61.3369 203.56 65.634 203.56 68.7191C203.56 73.7874 203.1 74.8892 199.185 79.0761C189.745 88.7721 185.14 100.231 185.14 113.783C185.14 144.744 211.965 168.764 237.062 160.28C247.309 156.864 248.46 159.178 244.546 174.934C240.286 192.012 240.171 193.665 242.013 197.962C244.431 203.471 248.345 203.361 254.907 197.521C259.052 193.885 260.779 193.114 264.578 193.114C270.219 193.114 275.86 195.208 278.854 198.513C281.502 201.268 286.682 201.598 289.215 199.064C291.863 196.53 291.518 190.36 287.719 175.705C282.423 155.652 281.502 147.058 282.192 122.818C282.538 107.834 283.459 97.0357 285.186 87.8907C288.179 71.5838 288.179 72.3551 284.725 69.1598C279.89 64.422 274.249 65.4136 265.038 72.6856C259.282 77.2031 256.174 77.2031 250.187 72.906C245.582 69.6005 236.487 66.4053 231.536 66.4053C230.04 66.4053 226.931 64.7525 224.629 62.7693C217.721 56.9296 214.843 55.3871 210.698 55.3871C207.475 55.3871 206.669 55.938 205.172 59.2435ZM242.243 76.8725C248.805 81.1696 252.49 98.9088 251.569 120.394C250.763 136.26 248.69 144.193 243.74 149.592C236.602 157.305 228.773 152.567 224.629 138.133C221.405 126.895 221.635 99.4597 225.089 88.8823C229.119 76.6521 235.451 72.2449 242.243 76.8725Z" fill="#1E1E1E"/>
<path d="M232.852 105.182C227.328 107.826 227.215 115.98 232.74 119.727C236.347 122.151 238.941 121.931 242.097 118.735C249.088 112.014 241.646 100.995 232.852 105.182Z" fill="#1E1E1E"/>
<path d="M443.778 66.912C437.707 71.0837 431.403 72.8402 425.448 72.1816C422.763 71.8522 417.86 71.1935 414.591 70.8642C408.87 70.0957 408.403 70.2055 406.535 72.95C404.433 75.8044 404.55 76.0239 409.804 86.0141C417.509 100.725 418.21 103.36 418.093 116.424C417.86 129.488 416.342 134.648 409.804 143.65C406.185 148.59 405.717 149.798 406.651 152.432C407.235 154.079 409.22 156.055 411.088 156.934C414.124 158.251 415.174 158.141 421.946 155.506C431.169 151.993 435.606 151.884 444.712 155.397C453.235 158.69 456.27 158.8 458.839 156.165C461.758 153.091 461.291 148.48 457.321 142.881C455.453 140.027 453.118 135.855 452.067 133.55C447.864 124.109 448.682 99.0782 453.935 78.5489C457.555 63.8381 454.169 59.8859 443.778 66.912Z" fill="#1E1E1E"/>
<path d="M163.673 69.7238C155.639 76.4621 151.278 77.7876 141.637 76.3516C133.373 75.0261 130.389 76.0202 129.241 80.2178C128.553 82.9794 130.733 87.177 137.39 96.1246C141.178 100.985 142.555 106.287 142.555 115.014C142.555 128.711 137.276 142.409 130.733 145.944C127.635 147.49 127.405 147.49 124.651 144.508C121.437 140.862 120.978 134.676 123.618 128.601C126.372 122.304 125.913 115.787 122.355 111.7C113.288 101.427 98.9415 103.968 95.3835 116.56C90.7926 132.799 109.845 151.246 139.915 159.862C157.016 164.722 177.102 163.618 183.414 157.542C187.316 153.787 186.857 150.583 181.578 143.845C173.773 133.903 171.478 121.863 173.429 101.758C174.118 94.799 175.724 85.8515 176.987 81.8748C179.856 72.8168 179.856 69.1715 176.987 66.4099C173.429 62.9855 170.789 63.6483 163.673 69.7238Z" fill="#1E1E1E"/>
<path d="M315.904 67.9992C308.443 69.6477 301.21 72.3952 297.307 75.2526C292.486 78.6595 292.256 83.3852 296.504 89.4297C303.277 98.8811 304.08 105.695 300.866 122.839C299.144 132.071 299.488 141.193 301.67 146.688C302.473 148.666 302.014 150.644 299.833 154.71C296.963 160.205 296.389 162.953 297.652 166.14C298.8 168.887 300.751 168.228 305.573 163.502C307.983 161.085 310.394 159.106 310.853 159.106C311.313 159.106 310.739 161.634 309.591 164.821C305.917 174.932 310.05 176.471 318.545 168.008C323.366 163.283 324.629 162.623 330.369 161.964C339.323 160.865 347.818 156.798 354.361 150.314C355.983 148.713 357.336 147.519 358.362 146.77C359.747 145.757 360.881 146.919 361.402 148.509C361.719 149.476 362.071 150.592 362.397 151.633C365.497 161.194 371.581 164.052 382.027 160.755C389.26 158.447 397.41 151.084 401.199 143.61C405.331 135.478 404.298 132.511 395.918 128.115C389.948 125.037 389.145 119.872 391.441 102.068C395 74.813 393.852 66.7903 386.39 66.7903C383.29 66.7903 382.601 67.4497 380.191 72.7249C378.698 76.0219 376.288 79.3189 374.795 80.0882C370.433 82.2862 363.43 81.9565 359.298 79.0991C354.706 76.0219 351.377 76.0219 349.196 79.3189C347.014 82.3961 347.588 84.0446 353.673 92.397C356.745 96.6301 358.476 101.618 358.659 106.765L358.839 111.849C359.068 121.301 358.724 126.356 357.346 130.642C352.869 145.479 342.308 153.062 334.731 147.127C332.206 145.149 331.976 144.16 331.632 132.071C331.287 123.609 332.091 111.739 333.698 97.892C335.764 80.6377 335.879 76.0219 334.846 72.8348C332.78 67.0101 327.155 65.5814 315.904 67.9992Z" fill="#1E1E1E"/>
<path d="M570.23 68.3106C546.188 73.2556 532.384 90.2882 532.384 115.013C532.384 143.474 549.409 160.067 580.124 161.935C604.281 163.364 621.996 154.793 630.969 137.21C634.65 130.068 634.765 129.628 634.765 115.013C634.765 100.508 634.65 99.9584 631.084 92.9255C620.501 72.4863 596.689 62.8162 570.23 68.3106ZM591.512 79.9587C596.574 86.552 598.989 98.2002 598.989 115.562C598.874 132.265 595.883 144.683 590.362 150.287C578.513 162.375 567.24 140.397 568.965 108.53C570 88.3102 575.982 75.4533 584.265 75.4533C587.486 75.4533 588.751 76.2225 591.512 79.9587Z" fill="#1E1E1E"/>
<path d="M581.228 106.175C577.357 107.499 574.19 111.363 574.19 114.786C574.19 121.962 581.228 125.936 588.032 122.624C591.904 120.747 592.96 118.871 592.96 114.344C592.96 109.597 585.921 104.629 581.228 106.175Z" fill="#1E1E1E"/>
<path d="M676.051 67.4229C664.979 69.1882 654.944 73.2706 648.946 78.5666C644.102 82.8697 643.179 84.304 642.718 88.7174C641.795 96.2201 643.179 101.295 647.216 105.709C651.83 110.674 658.635 113.984 672.245 117.625C678.243 119.28 684.586 121.376 686.316 122.149C698.312 128.217 702.464 142.671 694.275 150.504C686.201 158.228 676.974 151.718 673.514 135.72C671.899 128.217 667.401 123.142 661.403 122.038C650.907 120.163 643.525 125.348 642.603 135.058C642.257 140.243 642.603 141.457 646.063 146.312C650.561 152.821 659.788 158.118 670.399 160.324C682.741 162.972 703.386 162.09 713.19 158.449C714.113 158.118 715.382 159.773 716.651 162.862C718.842 168.268 720.918 169.592 724.378 167.937C727.031 166.503 727.146 163.745 724.84 158.338C722.417 152.821 723.34 152.711 727.031 158.007C730.145 162.531 733.951 163.745 736.72 161.097C738.911 159 738.334 156.683 734.643 151.056C732.502 147.736 731.829 143.739 732.773 139.945L733.029 138.919C734.759 132.41 734.759 131.306 733.029 125.569C729.684 114.646 722.187 109.571 701.772 104.495C683.318 99.8611 676.512 94.7857 676.397 85.5177C676.397 76.3599 685.624 72.0569 692.429 78.015C694.159 79.5596 697.043 83.973 698.888 87.8347C703.271 96.9924 706.616 99.5301 714.344 99.5301C721.61 99.5301 727.031 96.6614 729.569 91.3654C733.951 82.649 727.608 73.7119 714.228 69.7399C705.463 67.0919 686.086 65.9885 676.051 67.4229Z" fill="#1E1E1E"/>
</svg>
